Coordinates
version=1
nRows=12
nColumns=24
inDegrees=yes

Units are S.I. units (second, meters, Newtons, ...)
Angles are in degrees.

endheader
time	pelvis_tilt	pelvis_list	pelvis_rotation	pelvis_tx	pelvis_ty	pelvis_tz	hip_flexion_r	hip_adduction_r	hip_rotation_r	knee_angle_r	ankle_angle_r	subtalar_angle_r	mtp_angle_r	hip_flexion_l	hip_adduction_l	hip_rotation_l	knee_angle_l	ankle_angle_l	subtalar_angle_l	mtp_angle_l	lumbar_extension	lumbar_bending	lumbar_rotation
      0.57600000	     -1.34273018	      5.44532492	      3.06080316	     -0.87967830	      0.99455374	      0.27282849	     23.59918632	     -6.52952946	    -10.52250753	      4.82981582	      1.20120921	     -6.22285245	     -7.09463774	    -12.78831656	      6.76835663	     -1.07642070	     -6.19615626	     11.79055376	     -8.96976167	    -14.12733066	     -9.55391505	     -5.58609159	     -1.56868987
      0.58016667	     -1.12863666	      5.34372509	      3.24618940	     -0.87408306	      0.99419540	      0.27263031	     23.48661192	     -6.51056267	    -10.46304504	      4.19851977	      1.11675705	     -6.59804286	     -6.99497776	    -13.19286475	      6.57545222	     -0.88474113	     -6.53903801	     11.90861629	     -8.97583551	    -14.16557646	     -9.81422678	     -5.35058394	     -1.80483670
      0.58433333	     -1.02338046	      5.24461563	      3.37682276	     -0.86832517	      0.99365747	      0.27249282	     23.51221724	     -6.47849280	    -10.35822807	      3.48078523	      1.12437662	     -6.86053516	     -6.96687458	    -13.48912945	      6.40615091	     -0.72430926	     -6.88869002	     12.05560070	     -9.01131715	    -14.17045575	     -9.89721102	     -5.11006993	     -1.85291189
      0.58850000	     -0.59695308	      5.06945926	      3.60157911	     -0.86264602	      0.99374932	      0.27227339	     23.10124553	     -6.38057873	    -10.42270458	      2.88286672	      0.89622479	     -7.27010831	     -6.72254687	    -14.10075516	      6.09378421	     -0.51477908	     -7.25873031	     12.13769970	     -8.88577998	    -14.20302956	    -10.39778111	     -4.75361693	     -2.20691321
      0.59266667	     -0.47988702	      4.97497220	      3.74452264	     -0.85691015	      0.99331892	      0.27225154	     23.09342076	     -6.33816262	    -10.30451072	      2.15238319	      0.69323791	     -7.70282910	     -6.66733890	    -14.36915796	      5.91055849	     -0.31431392	     -7.67273815	     12.23612829	     -8.91408354	    -14.20192383	    -10.51634141	     -4.53922915	     -2.28780596
      0.59683333	     -0.15406183	      4.79161239	      3.88274563	     -0.85103836	      0.99327674	      0.27221923	     22.79398445	     -6.18773199	    -10.30352318	      1.52118598	      0.35561324	     -8.11822615	     -6.43975728	    -14.85394264	      5.60672291	     -0.23113984	     -8.09111459	     12.28244050	     -8.83586542	    -14.18287371	    -10.85547066	     -4.18226953	     -2.58358917
      0.60100000	     -0.02392905	      4.69685291	      4.04682437	     -0.84531302	      0.99296399	      0.27224177	     22.74421384	     -6.14099763	    -10.23155453	      0.80261245	      0.03668436	     -8.58159917	     -6.37107854	    -15.07919132	      5.40643839	     -0.02557447	     -8.60979033	     12.32823776	     -8.83281818	    -14.16725892	    -10.99365235	     -3.96974010	     -2.62062218
      0.60516667	      0.30802025	      4.50103546	      4.16145387	     -0.83938189	      0.99301295	      0.27235564	     22.41184067	     -5.95028754	    -10.23343408	      0.20524480	     -0.43309708	     -9.03553864	     -6.10281829	    -15.52739204	      5.07906990	      0.00407139	     -9.10102650	     12.33837294	     -8.70334797	    -14.09309267	    -11.33287262	     -3.61483670	     -2.90669090
      0.60933333	      0.42286842	      4.39043272	      4.30460760	     -0.83354278	      0.99277727	      0.27246090	     22.33999360	     -5.86755144	    -10.18480418	     -0.45137752	     -0.92312678	     -9.51354724	     -6.02717294	    -15.70979523	      4.86276117	      0.18054186	     -9.66749011	     12.32143110	     -8.72638898	    -14.06257837	    -11.43785029	     -3.38547351	     -2.91175493
      0.61350000	      0.82485567	      4.16979627	      4.44665098	     -0.82759747	      0.99305932	      0.27258925	     21.87661628	     -5.64602707	    -10.27466121	     -0.95571185	     -1.54361887	     -9.95620018	     -5.50382863	    -16.17895869	      4.48464616	      0.20720668	    -10.25053194	     12.27942000	     -8.53687263	    -13.83574520	    -11.86168672	     -3.00043032	     -3.08982610
      0.61766667	      0.91879541	      4.03019469	      4.53177517	     -0.82162905	      0.99288470	      0.27286447	     21.79897166	     -5.49825819	    -10.19477266	     -1.54989525	     -2.15273948	    -10.52141759	     -5.35419357	    -16.30307526	      4.24530348	      0.28669742	    -10.87569905	     12.15497012	     -8.56461567	    -13.75278466	    -11.91840473	     -2.74879043	     -3.21201606
      0.62183333	      1.02105833	      3.89174845	      4.60009117	     -0.81567894	      0.99277432	      0.27316754	     21.69701492	     -5.34661349	    -10.12576835	     -2.09770909	     -2.87844615	    -10.98569663	     -5.26391866	    -16.40417460	      4.01152119	      0.35301930	    -11.56663526	     12.06791217	     -8.56437508	    -13.69174417	    -11.99070876	     -2.49548984	     -3.25656316
